<svg xmlns="http://www.w3.org/2000/svg" xmlns:xlink="http://www.w3.org/1999/xlink" width="1080" zoomAndPan="magnify" viewBox="0 0 810 809.999993" height="1080" preserveAspectRatio="xMidYMid meet" version="1.0"><path fill="#070304" d="M 147.792969 744.730469 C 153.746094 720.402344 169.664062 707.796875 194.800781 705.59375 C 191.140625 699.730469 187.523438 694.621094 184.570312 689.15625 C 158.246094 640.324219 181.21875 585.234375 234.488281 569.71875 C 239.117188 568.351562 238.808594 565.578125 239.558594 562.269531 C 245.203125 537.238281 243.574219 511.410156 248.378906 486.289062 C 252.390625 465.3125 258.832031 445.214844 270.382812 427.058594 C 272.457031 423.796875 273.425781 421.0625 271.664062 417.054688 C 269.414062 411.898438 270.296875 406.695312 274 401.980469 C 279.203125 395.414062 278.628906 384.574219 273.25 378.226562 C 262.226562 365.226562 254.949219 350.195312 249.660156 332.523438 C 244.675781 340.105469 241.234375 347.242188 236.121094 353.238281 C 230.917969 359.363281 225.625 365.355469 219.1875 370.335938 C 215.304688 373.335938 213.410156 373.949219 212.308594 368.046875 C 210.765625 359.671875 207.546875 351.695312 204.195312 343.851562 C 198.328125 330.277344 189.597656 319.214844 176.324219 312.074219 C 172.265625 309.871094 168.429688 307.226562 164.417969 304.890625 C 145.898438 294.003906 131.210938 280.210938 128.082031 255.660156 C 124.15625 261.082031 122.921875 265.578125 121.421875 270.027344 C 120.761719 272.011719 120.628906 275.1875 118.117188 275.1875 C 115.425781 275.1875 115.777344 271.96875 115.382812 270.074219 C 109.296875 243.234375 112.558594 217.761719 127.113281 194.179688 C 142.808594 168.796875 164.816406 149.050781 186.289062 128.867188 C 197.84375 118.023438 209.839844 107.710938 222.273438 97.882812 C 241.015625 83.121094 261.917969 75.320312 286.082031 77.875 C 288.859375 78.183594 291.285156 77.65625 293.710938 76.199219 C 323.34375 58.261719 348.304688 35.523438 367.089844 6.214844 C 368.542969 3.921875 369.425781 0 373.132812 0.96875 C 376.21875 1.761719 376.835938 5.246094 377.453125 8.109375 C 378.464844 13.089844 379.261719 18.113281 380.363281 24.195312 C 389.09375 16.304688 398.179688 10.046875 408.496094 5.773438 C 412.773438 4.011719 417.140625 2.425781 421.769531 1.808594 C 423.488281 1.585938 425.296875 1.761719 426.445312 3.261719 C 427.8125 5.066406 426.222656 6.476562 425.34375 7.800781 C 419.566406 16.304688 414.582031 25.164062 412.203125 35.34375 C 411.320312 39.046875 411.320312 41.074219 416.125 41.515625 C 450.34375 44.601562 481.214844 57.292969 510.316406 74.835938 C 514.507812 77.347656 518.476562 78.226562 523.371094 77.832031 C 542.199219 76.332031 560.015625 80.429688 575.273438 91.582031 C 610.023438 116.878906 642.390625 144.910156 670.65625 177.390625 C 693.808594 203.964844 701.039062 235.035156 694.644531 269.414062 C 694.246094 271.660156 694.601562 275.1875 691.867188 275.496094 C 688.957031 275.800781 688.957031 272.144531 687.984375 270.074219 C 685.957031 265.84375 684.941406 261.039062 681.636719 256.808594 C 679.652344 262.273438 678.0625 267.339844 675.992188 272.1875 C 668.757812 289.15625 654.164062 298.675781 639.125 307.3125 C 621.265625 317.496094 607.683594 331.023438 601.554688 351.035156 C 599.703125 357.070312 597.585938 363.109375 596.527344 369.324219 C 595.601562 374.699219 594.015625 374.128906 590.75 371.261719 C 578.402344 360.421875 567.996094 348.035156 560.28125 331.90625 C 558.515625 336.402344 557.148438 339.664062 555.957031 343.011719 C 552.078125 353.898438 547.140625 364.5625 539.332031 372.847656 C 529.457031 383.339844 531.085938 393.34375 537.039062 404.316406 C 539.023438 407.976562 539.332031 412.117188 537.878906 415.6875 C 535.851562 420.667969 537.347656 424.28125 539.820312 428.511719 C 557.238281 457.996094 564.511719 490.300781 565.261719 524.148438 C 565.570312 538.121094 569.894531 551.515625 569.628906 565.445312 C 569.539062 569.851562 573.332031 569.234375 575.890625 570.027344 C 608.300781 580.296875 628.761719 601.40625 634.011719 635.429688 C 637.316406 656.894531 632.554688 677.078125 621.046875 695.589844 C 619.105469 698.675781 616.988281 701.625 614.210938 705.769531 C 637.539062 707.3125 653.191406 718.769531 660.910156 740.410156 C 666.246094 750.722656 664.613281 760.640625 658.707031 769.980469 C 652.265625 780.207031 642.214844 784.613281 630.617188 786.332031 C 610.242188 789.285156 589.738281 787.523438 569.277344 787.742188 C 561.558594 787.832031 555.03125 789.109375 549.695312 795.191406 C 545.199219 800.304688 538.894531 802.683594 532.277344 803.785156 C 510.847656 807.355469 489.371094 810 467.585938 807.179688 C 463.488281 806.648438 459.296875 807.089844 455.152344 806.78125 C 442.847656 805.855469 431.738281 802.15625 423.402344 792.460938 C 420.625 789.242188 417.273438 787.832031 413.128906 787.875 C 410.4375 787.917969 407.746094 788.050781 405.101562 787.832031 C 396.679688 787.039062 389.753906 788.800781 383.582031 795.542969 C 377.144531 802.507812 367.972656 805.679688 358.578125 806.429688 C 333.089844 808.546875 307.558594 809.25 282.113281 805.0625 C 271.707031 803.34375 262.3125 799.90625 254.992188 792.0625 C 251.6875 788.535156 247.542969 787.875 243 787.875 C 225.933594 787.917969 208.867188 788.007812 191.800781 787.832031 C 181.96875 787.742188 172.398438 786.289062 163.582031 781.398438 C 157.230469 777.871094 152.511719 772.847656 148.808594 766.632812 C 144.617188 759.316406 146.957031 752.046875 147.792969 744.730469 Z M 147.792969 744.730469 " fill-opacity="1" fill-rule="nonzero"/><path fill="#fdfdfd" d="M 343.628906 769.496094 C 343.628906 769.234375 343.675781 769.011719 343.628906 768.75 C 343.367188 766.015625 347.246094 762.09375 344.203125 761.078125 C 340.367188 759.847656 339.265625 764.871094 337.941406 767.824219 C 334.941406 774.433594 334.679688 781.53125 335.429688 788.625 C 335.914062 793.121094 334.105469 794.882812 329.785156 794.796875 C 326.609375 794.75 323.433594 794.925781 320.300781 794.925781 C 308.484375 794.882812 307.957031 794.308594 309.320312 782.277344 C 310.027344 775.976562 311.394531 769.804688 314.128906 763.988281 C 314.789062 762.621094 316.554688 760.773438 314.570312 759.449219 C 312.320312 757.949219 311.042969 760.285156 309.941406 761.695312 C 304.164062 768.835938 302.179688 777.296875 302.046875 786.246094 C 301.957031 790.519531 301.296875 793.648438 296.003906 792.238281 C 291.726562 791.09375 284.761719 794.222656 285.199219 785.40625 C 285.597656 777.210938 287.316406 769.496094 292.167969 762.710938 C 293.09375 761.433594 294.992188 760.066406 292.875 758.480469 C 291.152344 757.15625 289.699219 758.4375 288.375 759.625 C 281.144531 766.105469 278.675781 774.742188 278.101562 783.863281 C 277.703125 790.167969 275.324219 789.242188 271.488281 786.949219 C 263.019531 781.925781 259.226562 773.023438 260.902344 761.695312 C 262.886719 748.253906 270.164062 737.191406 277.351562 726.21875 C 281.054688 720.578125 282.203125 715.378906 280.96875 708.589844 C 272.148438 659.714844 263.503906 610.792969 259.492188 561.257812 C 256.757812 527.410156 256.273438 493.605469 267.296875 460.773438 C 267.738281 459.40625 268.355469 458.039062 268.839844 456.71875 C 273.207031 454.867188 274.574219 458.65625 275.894531 461.082031 C 285.464844 478.753906 300.238281 491.269531 316.421875 502.332031 C 341.203125 519.300781 368.675781 529.085938 398.53125 532.257812 C 407.175781 533.183594 415.550781 530.980469 423.753906 528.863281 C 463.441406 518.683594 498.058594 500.171875 523.945312 467.429688 C 526.988281 463.59375 529.5 459.449219 532.234375 455.394531 C 533.644531 453.324219 534.484375 450.285156 538.054688 450.902344 C 546.257812 468.574219 549.960938 487.347656 551.328125 506.609375 C 553.753906 541.027344 549.960938 575.140625 545.242188 609.164062 C 540.480469 643.40625 534.308594 677.386719 528.046875 711.367188 C 527.074219 716.609375 527.867188 720.753906 530.691406 725.074219 C 536.996094 734.636719 542.90625 744.464844 546.300781 755.484375 C 550.445312 769.058594 547.316406 780.207031 537.96875 786.113281 C 532.234375 789.726562 531.351562 789.332031 531 782.632812 C 530.601562 774.300781 527.78125 766.941406 521.960938 760.902344 C 520.503906 759.40625 518.476562 757.289062 516.449219 758.921875 C 514.285156 760.683594 516.886719 762.3125 517.902344 763.769531 C 522.445312 770.511719 523.769531 778.136719 523.898438 786.023438 C 524.03125 794.664062 516.800781 791.136719 512.566406 792.28125 C 508.378906 793.429688 506.527344 791.621094 506.613281 786.949219 C 506.703125 779.371094 505.90625 771.832031 501.628906 765.222656 C 500 762.667969 498.632812 759.714844 493.824219 759.40625 C 495.632812 766.632812 498.71875 772.980469 499.335938 779.988281 C 500.617188 794.617188 500.660156 794.75 486.109375 794.839844 C 473.894531 794.925781 473.804688 794.925781 473.71875 782.5 C 473.671875 776.285156 472.570312 770.378906 469.484375 764.957031 C 468.203125 762.710938 467.234375 759.976562 462.691406 760.023438 C 465.78125 769.980469 468.203125 779.808594 466.351562 789.992188 C 465.734375 791.09375 464.808594 792.28125 463.574219 792.019531 C 453.300781 789.769531 443.113281 787.347656 435.617188 779.015625 C 427.898438 770.378906 427.8125 760.683594 431.207031 750.414062 C 434.117188 739.21875 440.863281 730.40625 448.757812 722.296875 C 451.183594 719.828125 453.300781 717.492188 453.257812 713.570312 C 452.726562 670.777344 453.875 627.9375 451.84375 585.144531 C 451.625 580.914062 450.832031 576.726562 449.507812 572.453125 C 441.4375 591.09375 440.644531 610.839844 440.070312 630.625 C 436.808594 646.800781 426.179688 657.953125 414.140625 667.867188 C 407.878906 673.023438 401.441406 672.671875 394.871094 667.164062 C 382.390625 656.71875 372.824219 644.289062 369.910156 627.671875 C 369.25 609.074219 368.105469 590.519531 360.960938 572.847656 C 358.09375 581.707031 357.34375 590.785156 357.300781 599.820312 C 357.035156 637.324219 357.125 674.832031 356.859375 712.335938 C 356.816406 717.097656 359.019531 720.046875 362.105469 723 C 373.703125 734.109375 380.273438 747.59375 381.640625 763.59375 C 378.246094 776.460938 361.621094 790.300781 348.4375 791.226562 C 345.085938 791.445312 342.570312 790.738281 342.878906 786.640625 C 343.367188 781 342.175781 775.183594 343.628906 769.496094 Z M 343.628906 769.496094 " fill-opacity="1" fill-rule="nonzero"/><path fill="#fdfdfd" d="M 547.273438 329.304688 C 538.230469 361.390625 518.253906 384.441406 488.710938 399.425781 C 478.125 404.757812 467.058594 408.855469 454.800781 412.691406 C 456.34375 408.898438 457.488281 406.078125 458.589844 403.304688 C 443.90625 414.542969 432.617188 430.9375 411.230469 431.863281 C 412.949219 427.015625 417.757812 424.28125 417.007812 418.597656 C 413.480469 418.375 411.453125 421.152344 408.9375 422.652344 C 390.503906 433.625 381.113281 432.433594 366.429688 416.878906 C 361.269531 411.414062 356.375 405.769531 350.816406 399.644531 C 349.628906 404.539062 353.066406 407.578125 353.023438 411.324219 C 301.648438 399.027344 267.871094 366.238281 260.019531 318.992188 C 258.390625 303.65625 267.78125 294.269531 278.367188 285.761719 C 283.480469 281.664062 289.476562 278.578125 295.652344 276.550781 C 311.570312 271.308594 322.550781 260.6875 330.355469 246.320312 C 331.28125 244.601562 332.472656 243.058594 333.488281 241.425781 C 338.648438 236.710938 343.101562 231.464844 345.4375 224.722656 C 348.171875 210.445312 351.257812 196.253906 350.640625 181.488281 C 350.15625 170.425781 348.304688 159.71875 344.554688 149.402344 C 339.792969 136.136719 330.886719 132.082031 317.4375 136.753906 C 301.164062 142.441406 288.773438 152.972656 279.996094 167.648438 C 275.410156 175.320312 270.164062 182.722656 267.78125 191.582031 C 267.253906 193.609375 266.238281 195.636719 264.121094 196.695312 C 261.257812 195.460938 263.503906 192.507812 261.875 190.964844 C 260.636719 176.773438 259.890625 162.539062 261.609375 148.347656 C 257.550781 139.398438 262.492188 131.644531 265.84375 124.328125 C 270.824219 113.351562 277.96875 103.480469 286.65625 94.886719 C 288.730469 92.816406 291.152344 92.375 293.578125 91.492188 C 316.6875 78.492188 337.984375 63.332031 353.15625 41.03125 C 355.890625 37.019531 358.09375 32.65625 360.605469 28.515625 C 361.445312 27.148438 361.972656 25.03125 364.265625 25.828125 C 365.898438 26.398438 365.941406 28.074219 366.03125 29.527344 C 366.296875 34.15625 366.382812 38.785156 366.691406 43.367188 C 366.871094 45.921875 367.839844 48.257812 370.441406 49.140625 C 372.953125 50.023438 374.496094 48.039062 375.996094 46.496094 C 383.625 38.738281 390.328125 30.011719 400.957031 24.195312 C 399.765625 30.851562 398.355469 36.667969 397.738281 42.574219 C 397.121094 48.480469 399.808594 52.710938 406.160156 53.152344 C 445.628906 55.972656 480.550781 71.265625 513.625 91.757812 C 514.066406 91.933594 514.550781 91.976562 515.035156 92.15625 C 531 98.367188 550.359375 131.863281 547.933594 148.789062 C 547.359375 152.796875 547.140625 156.941406 548.242188 160.949219 C 548.726562 171.527344 548.550781 182.0625 546.875 192.550781 C 544.667969 197.179688 543.214844 194.84375 542.066406 191.933594 C 538.628906 183.03125 534.085938 174.65625 528.441406 167.078125 C 518.785156 154.03125 507.40625 142.792969 491.445312 137.550781 C 475.613281 132.304688 466.617188 136.625 461.679688 152.488281 C 455.636719 171.882812 454.445312 191.582031 460.003906 211.371094 C 460.445312 213 460.882812 214.628906 461.0625 216.351562 C 460.839844 227.765625 467.058594 235.652344 475.171875 242.617188 C 477.113281 245.703125 478.390625 249.140625 480.023438 252.355469 C 486.636719 265.3125 497.574219 272.761719 510.804688 277.433594 C 527.25 283.25 539.511719 293.300781 545.683594 310.089844 C 548.066406 316.4375 548.636719 322.738281 547.273438 329.304688 Z M 547.273438 329.304688 " fill-opacity="1" fill-rule="nonzero"/><path fill="#f0b97c" d="M 548.242188 160.949219 C 546.300781 158.617188 546.875 155.75 547.050781 153.238281 C 548.242188 133.847656 539.113281 118.597656 527.339844 104.539062 C 523.328125 99.734375 518.828125 95.328125 513.625 91.714844 C 535.011719 88.363281 554.988281 91.625 572.273438 105.375 C 607.375 133.230469 642.652344 160.90625 669.378906 197.574219 C 676.875 207.886719 682.03125 219.214844 682.386719 232.390625 C 678.460938 227.191406 676.035156 221.066406 671.492188 216.394531 C 669.949219 214.851562 668.582031 213.042969 666.820312 211.765625 C 665.230469 210.621094 663.601562 207.976562 661.261719 209.738281 C 658.882812 211.5 660.734375 213.660156 661.703125 215.554688 C 667.171875 226.222656 669.246094 237.59375 668.847656 249.492188 C 668.714844 252.929688 668.40625 256.277344 666.90625 259.453125 C 664.96875 264.652344 661.394531 268.355469 656.808594 271.441406 C 646.929688 278.136719 636.128906 283.25 625.851562 289.246094 C 611.875 297.398438 600.628906 308.152344 593.53125 322.871094 C 592.472656 325.03125 591.808594 327.984375 588.988281 328.074219 C 585.722656 328.160156 584.929688 324.941406 584.003906 322.5625 C 577.609375 305.726562 572.40625 288.539062 567.335938 271.308594 C 565.261719 264.300781 563.234375 257.292969 560.324219 250.59375 C 555.828125 240.238281 555.695312 229.484375 557.148438 218.507812 C 557.898438 199.558594 558.914062 180.5625 553.886719 161.921875 C 552.738281 157.601562 551.195312 153.414062 548.242188 149.535156 C 548.242188 153.371094 548.242188 157.160156 548.242188 160.949219 Z M 548.242188 160.949219 " fill-opacity="1" fill-rule="nonzero"/><path fill="#f0b97d" d="M 293.578125 91.492188 C 276.382812 106.785156 263.460938 124.503906 261.609375 148.390625 C 257.992188 148.039062 258.125 151.253906 257.375 153.238281 C 252.789062 165.183594 250.761719 177.699219 250.761719 190.390625 C 250.804688 204.625 250.320312 218.949219 253.140625 233.054688 C 254.816406 244.601562 251.820312 255.707031 250.097656 266.945312 C 246.394531 290.65625 238.808594 313.265625 229.460938 335.257812 C 228.578125 337.371094 228.09375 340.457031 224.917969 340.148438 C 222.230469 339.882812 222.097656 337.0625 221.566406 335.078125 C 216.320312 315.6875 203.53125 302.070312 187.921875 290.523438 C 180.515625 285.015625 172.929688 279.726562 166.492188 272.9375 C 150.570312 256.234375 147.132812 236.183594 149.820312 214.144531 C 150.835938 205.90625 152.027344 197.882812 155.953125 190.433594 C 152.335938 197.222656 150.261719 204.980469 143.339844 209.5625 C 137.035156 215.027344 132.710938 222.125 127.375 230.320312 C 126.980469 225.03125 128.347656 221.59375 129.714844 218.199219 C 136.769531 200.441406 148.5 185.851562 161.417969 172.144531 C 182.5 149.800781 205.296875 129.308594 228.976562 109.695312 C 247.851562 93.960938 269.324219 87.921875 293.578125 91.492188 Z M 293.578125 91.492188 " fill-opacity="1" fill-rule="nonzero"/><path fill="#c0bfbf" d="M 220.511719 589.550781 C 227.832031 583.824219 236.871094 582.542969 245.382812 579.855469 C 248.6875 578.84375 248.953125 580.957031 249.171875 583.335938 C 252.921875 626.527344 261.34375 669.058594 268.265625 711.808594 C 268.796875 714.980469 268.222656 717.449219 266.546875 720.003906 C 256.449219 735.429688 247.453125 751.25 248.421875 770.644531 C 248.601562 773.773438 246.746094 774.214844 244.277344 774.167969 C 228.933594 774.082031 213.585938 773.992188 198.242188 774.082031 C 194.316406 774.125 193.257812 772.40625 193.214844 768.792969 C 193.167969 759.582031 195.417969 750.988281 198.992188 742.613281 C 199.738281 740.808594 201.902344 738.207031 199.253906 736.882812 C 197.050781 735.78125 195.417969 738.515625 194.226562 740.234375 C 188.847656 748.121094 186.820312 757.023438 186.335938 766.457031 C 186.203125 768.660156 188.1875 773.15625 182.9375 772.625 C 178.75 772.1875 174.738281 771.4375 175 765.398438 C 175.355469 758.480469 176.28125 751.867188 179.5 745.65625 C 180.777344 743.1875 181.835938 740.628906 182.320312 737.808594 C 170.28125 743.40625 169.136719 754.644531 167.945312 766.457031 C 162.699219 763.769531 161.023438 759.492188 160.492188 754.511719 C 158.730469 737.941406 169.355469 723.089844 186.203125 719.871094 C 200.667969 717.097656 215.261719 715.996094 228.449219 725.117188 C 229.769531 726 231.136719 727.277344 234.621094 726.527344 C 222.625 713.835938 208.558594 704.050781 199.917969 689.464844 C 197.667969 674.566406 197.269531 659.539062 199.210938 644.640625 C 201.546875 626.617188 207.367188 609.691406 217.996094 594.707031 C 219.097656 593.164062 220.332031 591.578125 220.511719 589.550781 Z M 220.511719 589.550781 " fill-opacity="1" fill-rule="nonzero"/><path fill="#c0bfbf" d="M 538.1875 450.945312 C 532.410156 456.585938 529.324219 464.167969 524.207031 470.335938 C 494.089844 506.828125 454.359375 526.042969 408.671875 533.757812 C 392.09375 536.578125 375.734375 531.15625 360.121094 526 C 331.769531 516.65625 307.027344 501.1875 286.480469 479.238281 C 281.761719 474.214844 278.453125 468.355469 274.792969 462.667969 C 273.292969 460.332031 272.589844 457.070312 268.972656 456.71875 C 270.871094 447.816406 275.941406 440.367188 279.910156 431.464844 C 303.324219 459.363281 333.929688 473.730469 366.914062 484.042969 C 370.441406 485.144531 371.675781 486.996094 372.25 490.652344 C 374.984375 507.402344 384.816406 519.210938 399.105469 527.761719 C 403.027344 530.097656 406.6875 529.128906 410.128906 527.101562 C 424.238281 518.949219 433.410156 507.046875 435.175781 490.652344 C 435.707031 485.675781 437.558594 484.351562 441.703125 483.117188 C 472.128906 473.949219 500.484375 460.949219 523.238281 437.898438 C 524.957031 436.179688 526.632812 434.417969 528.308594 432.699219 C 528.441406 432.566406 528.75 432.523438 529.410156 432.257812 C 533.292969 437.945312 536.421875 444.113281 538.1875 450.945312 Z M 538.1875 450.945312 " fill-opacity="1" fill-rule="nonzero"/><path fill="#eeb97f" d="M 459.386719 216.746094 C 452.507812 194.488281 453.125 172.320312 460.398438 150.328125 C 465.425781 135.082031 475.085938 130.144531 490.210938 135.035156 C 512.390625 142.175781 526.5 158.394531 537.480469 177.875 C 540.082031 182.503906 542.90625 187.085938 544.007812 192.417969 C 544.714844 195.855469 545.90625 191.890625 546.832031 192.59375 C 545.726562 206.828125 544.933594 221.109375 543.523438 235.34375 C 541.316406 257.335938 543.039062 279.0625 548.859375 300.261719 C 551.636719 310.398438 549.960938 319.785156 547.183594 329.351562 C 546.082031 303.347656 533.027344 286.425781 508.246094 278.445312 C 490.738281 272.804688 479.890625 260.640625 474.15625 243.496094 C 476.1875 241.648438 478.304688 242.96875 480.332031 243.367188 C 495.105469 246.496094 508.378906 237.679688 511.113281 222.871094 C 511.289062 221.902344 511.289062 220.933594 511.507812 220.007812 C 512.699219 214.324219 514.640625 213.617188 519.359375 217.097656 C 520.726562 218.113281 521.652344 219.609375 523.636719 220.535156 C 519.667969 209.429688 513.359375 200.703125 503.21875 195.019531 C 486.195312 185.542969 467.632812 193.386719 462.472656 212.164062 C 462.074219 213.96875 462.738281 216.835938 459.386719 216.746094 Z M 459.386719 216.746094 " fill-opacity="1" fill-rule="nonzero"/><path fill="#efb87f" d="M 261.875 191.007812 C 262.621094 192.460938 263.328125 193.871094 264.210938 195.546875 C 270.382812 178.09375 278.71875 162.054688 292.300781 149.492188 C 300.679688 141.734375 310.292969 135.652344 321.847656 133.316406 C 332.164062 131.203125 340.144531 134.816406 344.511719 144.335938 C 352.625 162.097656 353.816406 180.914062 351.832031 199.953125 C 350.949219 208.503906 348.570312 216.921875 346.847656 225.382812 C 344.070312 223.226562 344.6875 220.097656 344.820312 217.320312 C 345.21875 206.523438 339.707031 199.425781 330.796875 194.488281 C 321.625 189.421875 312.234375 190.082031 303.808594 195.589844 C 294.769531 201.542969 288.15625 209.960938 284.230469 220.710938 C 286.699219 220.625 287.847656 218.90625 289.390625 218.023438 C 293.402344 215.777344 294.902344 217.320312 295.785156 221.375 C 299.972656 240.367188 311.085938 247.15625 329.785156 242.351562 C 331.414062 241.910156 333.046875 241.25 334.679688 242.308594 C 326.253906 260.023438 313.820312 273.027344 294.503906 279.109375 C 285.246094 282.015625 277.042969 287.480469 270.648438 295.152344 C 264.828125 302.070312 260.375 309.605469 260.066406 318.992188 C 258.34375 315.378906 257.640625 311.632812 258.917969 307.753906 C 268.929688 277.960938 267.5625 247.597656 263.8125 217.011719 C 262.753906 208.417969 261.300781 199.777344 261.875 191.007812 Z M 261.875 191.007812 " fill-opacity="1" fill-rule="nonzero"/><path fill="#fdfdfd" d="M 545.417969 690.476562 C 551.019531 655.21875 557.546875 620.050781 561.117188 584.484375 C 561.382812 581.707031 561.074219 579.589844 565.570312 580.605469 C 627.707031 594.574219 633.613281 656.9375 608.566406 690.742188 C 605.480469 694.398438 601.289062 693.078125 597.71875 692.503906 C 582.328125 690.125 567.425781 691.710938 552.695312 696.515625 C 545.597656 698.761719 544.667969 697.75 545.417969 690.476562 Z M 545.417969 690.476562 " fill-opacity="1" fill-rule="nonzero"/><path fill="#c1bfbf" d="M 370 627.761719 C 375.378906 641.378906 382.523438 653.808594 393.59375 663.769531 C 402.191406 671.527344 408.363281 671.4375 416.964844 663.59375 C 427.148438 654.292969 434.601562 643.1875 440.160156 630.714844 C 440.203125 656.761719 440.203125 682.765625 440.378906 708.808594 C 440.378906 712.117188 438.925781 714.230469 436.941406 716.480469 C 423.269531 731.726562 414.496094 748.871094 416.566406 770.027344 C 416.875 773.421875 415.730469 774.300781 412.640625 774.214844 C 407.042969 774.082031 400.605469 775.976562 396.0625 773.816406 C 390.636719 771.261719 395.269531 764.515625 394.5625 759.582031 C 392.226562 743.273438 385.125 729.480469 374.234375 717.535156 C 371.015625 714.011719 369.734375 710.484375 369.78125 705.859375 C 369.957031 679.8125 369.957031 653.808594 370 627.761719 Z M 370 627.761719 " fill-opacity="1" fill-rule="nonzero"/><path fill="#c1bfbf" d="M 520.152344 394.003906 C 522.003906 399.777344 520.019531 403.480469 517.242188 407.136719 C 501.71875 427.761719 479.890625 439.222656 456.785156 449.007812 C 443.070312 454.824219 428.164062 456.761719 414.449219 462.402344 C 411.894531 463.460938 411.671875 461.65625 410.613281 460.464844 C 408.054688 457.554688 403.601562 456.234375 401.441406 458.394531 C 395.839844 463.945312 391.167969 459.628906 386.007812 458.527344 C 364.398438 453.941406 343.9375 446.449219 324.84375 435.34375 C 312.980469 428.425781 302.046875 420.359375 294.109375 408.902344 C 291.507812 405.152344 288.816406 401.277344 289.742188 395.457031 C 293.050781 397.617188 296.003906 399.558594 298.914062 401.496094 C 315.496094 412.601562 333.796875 419.785156 352.933594 424.941406 C 357.210938 426.089844 360.828125 428.070312 364.3125 430.980469 C 373.085938 438.296875 382.921875 443.320312 395.003906 441.820312 C 396.898438 441.601562 398.972656 441.734375 400.78125 442.308594 C 418.242188 447.640625 432.046875 439.75 445.363281 430.097656 C 447.125 428.820312 448.449219 427.144531 450.742188 426.574219 C 475.703125 420.183594 499.25 410.707031 520.152344 394.003906 Z M 520.152344 394.003906 " fill-opacity="1" fill-rule="nonzero"/><path fill="#c0bebe" d="M 545.417969 690.476562 C 546.785156 692.0625 543.613281 697.441406 549.609375 695.191406 C 567.6875 688.449219 586.253906 687.964844 605.082031 691.226562 C 606.1875 691.402344 607.421875 690.917969 608.566406 690.742188 C 602.347656 701.40625 592.734375 708.855469 583.871094 717.007812 C 580.210938 720.355469 576.066406 723.265625 573.816406 728.554688 C 587.839844 719.519531 602.394531 714.230469 618.929688 719.695312 C 618.796875 719.871094 618.621094 720.226562 618.488281 720.226562 C 608.171875 720.488281 607.289062 727.894531 606.054688 735.695312 C 604.640625 744.507812 601.378906 752.96875 599.570312 761.742188 C 598.644531 766.191406 598.777344 770.113281 601.113281 773.949219 C 588.945312 774.035156 576.773438 774.082031 564.644531 774.214844 C 561.734375 774.257812 560.191406 773.640625 560.414062 770.160156 C 561.425781 753.234375 554.503906 738.734375 545.683594 725.117188 C 541.628906 718.902344 540.128906 713.128906 542.199219 706.035156 C 543.613281 700.964844 544.316406 695.675781 545.417969 690.476562 Z M 545.417969 690.476562 " fill-opacity="1" fill-rule="nonzero"/><path fill="#9c5d36" d="M 143.296875 209.5625 C 148.191406 201.144531 153.085938 192.683594 157.9375 184.265625 C 156.128906 194.710938 152.335938 204.316406 151.320312 214.851562 C 148.71875 241.691406 155.113281 264.519531 178.132812 280.828125 C 184.660156 285.453125 191.007812 290.433594 197.226562 295.457031 C 211.25 306.828125 220.640625 321.195312 224.65625 340.5 C 241.28125 305.464844 249.128906 269.765625 253.097656 233.007812 C 255.832031 247.992188 255.171875 263.023438 252.746094 277.832031 C 248.820312 301.585938 241.808594 324.238281 226.859375 343.71875 C 225.226562 345.832031 224.039062 348.257812 221.257812 349.445312 C 218.480469 346.804688 218.039062 342.96875 216.628906 339.75 C 208.074219 320.140625 193.082031 306.785156 174.957031 296.253906 C 164.019531 289.90625 152.910156 283.515625 146.558594 271.835938 C 136.238281 252.886719 139.328125 233.890625 147.308594 215.027344 C 148.058594 213.265625 149.691406 211.371094 148.585938 209.605469 C 147.175781 207.269531 145.101562 210.222656 143.296875 209.5625 Z M 143.296875 209.5625 " fill-opacity="1" fill-rule="nonzero"/><path fill="#9a5d34" d="M 557.148438 218.554688 C 554.679688 234.550781 562.21875 248.300781 566.761719 262.800781 C 572.671875 281.578125 577.875 300.570312 584.667969 319.039062 C 585.722656 321.945312 586.34375 325.074219 589.296875 327.941406 C 594.984375 312.558594 604.773438 300.660156 618.003906 291.976562 C 627.75 285.585938 638.199219 280.34375 648.296875 274.480469 C 655.222656 270.46875 661.925781 266.0625 666.820312 259.539062 C 664.351562 272.144531 655.75 280.210938 645.960938 287.261719 C 640.273438 291.359375 634.230469 295.0625 628.191406 298.675781 C 609.976562 309.5625 596.96875 324.679688 589.871094 344.777344 C 589.339844 346.316406 589.429688 348.652344 587.578125 349.050781 C 585.285156 349.535156 584.535156 347.066406 583.476562 345.613281 C 566.851562 322.828125 559.132812 296.78125 555.519531 269.148438 C 553.578125 254.515625 555.648438 240.058594 555.695312 225.515625 C 555.78125 223.179688 555.296875 220.582031 557.148438 218.554688 Z M 557.148438 218.554688 " fill-opacity="1" fill-rule="nonzero"/><path fill="#f9f9f9" d="M 601.070312 773.90625 C 596.703125 773.023438 595.644531 770.292969 596.660156 766.238281 C 598.867188 757.289062 600.9375 748.34375 603.097656 739.398438 C 603.671875 737.0625 604.15625 734.636719 604.90625 732.34375 C 606.1875 728.421875 603.230469 722.914062 606.847656 720.710938 C 609.890625 718.816406 614.828125 719.917969 618.886719 719.695312 C 622.0625 722.5625 626.292969 720.578125 629.910156 722.164062 C 641.640625 727.410156 649.796875 739.882812 649.664062 752.925781 C 649.621094 758.742188 647.195312 763.019531 642.035156 766.722656 C 640.667969 755.042969 640.40625 743.320312 628.058594 737.105469 C 626.46875 740.675781 629.027344 742.613281 630.042969 744.773438 C 633.085938 751.296875 634.585938 758.039062 634.496094 765.222656 C 634.453125 769.234375 632.6875 771.523438 628.71875 772.363281 C 625.015625 773.15625 622.808594 772.933594 622.941406 768.085938 C 623.207031 760.023438 622.015625 752 618.179688 744.773438 C 616.460938 741.511719 615.09375 737.5 610.550781 736.664062 C 608.523438 739.308594 610.683594 741.46875 611.476562 743.453125 C 614.476562 750.765625 615.359375 758.390625 615.976562 766.191406 C 616.460938 772.363281 614.386719 774.832031 608.257812 774.167969 C 605.964844 773.949219 603.496094 773.992188 601.070312 773.90625 Z M 601.070312 773.90625 " fill-opacity="1" fill-rule="nonzero"/><path fill="#dda979" d="M 427.28125 489.992188 C 425.519531 501.804688 418.285156 511.410156 407.660156 518.773438 C 404.484375 520.976562 401.574219 519.519531 398.929688 517.582031 C 389.753906 510.925781 383.183594 502.378906 380.628906 491.183594 C 378.246094 480.695312 384.199219 474.480469 394.960938 475.890625 C 395.929688 476.023438 397.515625 476.417969 397.78125 476.023438 C 404.617188 465.3125 411.1875 478.136719 418.550781 476.507812 C 424.109375 475.273438 427.105469 482.414062 427.28125 489.992188 Z M 427.28125 489.992188 " fill-opacity="1" fill-rule="nonzero"/><path fill="#b37752" d="M 385.609375 467.914062 C 378.15625 474.875 370.707031 476.859375 361.136719 473.070312 C 339.085938 464.386719 317.65625 454.78125 299.621094 439 C 292.257812 432.566406 285.863281 425.296875 281.277344 416.570312 C 280.128906 414.410156 279.027344 412.207031 280.085938 409.648438 C 280.878906 407.753906 282.203125 406.519531 283.746094 408.769531 C 307.910156 444.644531 345.878906 456.585938 384.730469 467.121094 C 384.90625 467.25 385.039062 467.472656 385.609375 467.914062 Z M 385.609375 467.914062 " fill-opacity="1" fill-rule="nonzero"/><path fill="#fafaf9" d="M 220.511719 589.550781 C 222.804688 590.167969 223.863281 590.566406 221.746094 593.253906 C 210.234375 608.195312 204.0625 625.339844 201.460938 643.890625 C 199.609375 657.15625 199.652344 670.425781 201.328125 683.691406 C 201.59375 685.894531 202.386719 688.007812 199.960938 689.507812 C 178.089844 654.558594 183.46875 616.921875 213.71875 593.738281 C 215.835938 592.109375 218.261719 590.917969 220.511719 589.550781 Z M 220.511719 589.550781 " fill-opacity="1" fill-rule="nonzero"/><path fill="#bb7b57" d="M 424.152344 467.957031 C 442.894531 464.121094 460.445312 457.820312 477.15625 449.402344 C 495.808594 440.058594 513.183594 429.042969 524.871094 411.015625 C 525.753906 409.695312 526.632812 407.535156 528.707031 408.902344 C 530.25 409.957031 529.941406 411.941406 529.410156 413.617188 C 526.988281 421.019531 521.960938 426.75 516.535156 431.949219 C 497.398438 450.371094 474.378906 462.226562 449.683594 471.261719 C 448.097656 471.835938 446.421875 472.277344 444.878906 472.980469 C 437.25 476.507812 430.0625 477.210938 424.152344 467.957031 Z M 424.152344 467.957031 " fill-opacity="1" fill-rule="nonzero"/><path fill="#c6c2c2" d="M 343.628906 769.496094 C 343.628906 774.566406 343.761719 779.589844 343.585938 784.660156 C 343.410156 789.285156 345.039062 790.609375 349.628906 789.285156 C 363.871094 785.144531 375.070312 777.34375 381.6875 763.769531 C 381.773438 782.71875 364.574219 797.21875 346.011719 794 C 343.71875 793.605469 342.308594 792.636719 342.21875 790.386719 C 342 783.335938 340.632812 776.242188 343.628906 769.496094 Z M 343.628906 769.496094 " fill-opacity="1" fill-rule="nonzero"/><path fill="#bdb9b9" d="M 431.339844 750.457031 C 429.398438 760.816406 429.222656 770.730469 437.910156 778.621094 C 446.023438 785.9375 455.503906 789.769531 466.441406 790.035156 C 466.925781 792.28125 465.78125 793.253906 463.75 793.253906 C 452.683594 793.164062 441.527344 792.460938 434.339844 782.542969 C 427.238281 772.671875 426.09375 761.695312 431.339844 750.457031 Z M 431.339844 750.457031 " fill-opacity="1" fill-rule="nonzero"/><path fill="#0b0205" d="M 409.421875 250.550781 C 419.34375 250.636719 431.867188 253.195312 443.246094 260.023438 C 452.152344 265.359375 454.359375 271.351562 450.699219 281.046875 C 444.082031 298.542969 431.558594 310.839844 415.242188 319.214844 C 409.730469 322.035156 409.597656 324.457031 412.203125 329.128906 C 422.742188 347.773438 437.160156 361.125 459.648438 362.097656 C 478.875 362.890625 492.636719 350.902344 495.589844 331.90625 C 496.207031 328.027344 496.914062 324.503906 501.984375 324.898438 C 507.628906 325.339844 507.496094 329.527344 507.363281 333.492188 C 506.570312 353.855469 489.8125 370.691406 467.542969 373.644531 C 461.941406 374.390625 456.253906 374.789062 450.832031 373.511719 C 445.273438 372.1875 441.921875 373.070312 439.675781 378.976562 C 438.085938 383.117188 434.824219 386.820312 431.738281 390.214844 C 415.023438 408.546875 389.316406 407.269531 374.234375 387.527344 C 372.335938 385.011719 370.265625 382.414062 369.207031 379.503906 C 367.179688 373.820312 364.488281 372.277344 357.960938 373.378906 C 338.867188 376.550781 322.199219 371.261719 309.894531 355.527344 C 304.472656 348.609375 302 340.457031 301.957031 331.6875 C 301.957031 327.984375 303.058594 324.8125 307.691406 324.8125 C 311.703125 324.765625 312.9375 327.191406 313.554688 330.804688 C 318.230469 357.378906 341.203125 369.5 365.988281 358.527344 C 380.097656 352.269531 390.460938 341.953125 397.78125 328.511719 C 399.898438 324.632812 399.589844 322.476562 395.046875 320.140625 C 379.921875 312.382812 368.015625 301.101562 360.914062 285.367188 C 354.785156 271.75 357.476562 264.695312 370.882812 258.261719 C 381.949219 252.796875 393.8125 250.550781 409.421875 250.550781 Z M 409.421875 250.550781 " fill-opacity="1" fill-rule="nonzero"/><path fill="#0d0206" d="M 334.632812 242.308594 C 318.804688 251.738281 294.195312 244.46875 293.710938 217.230469 C 289.300781 218.992188 286.4375 222.5625 283.171875 225.382812 C 280.570312 224.238281 281.628906 222.519531 282.203125 221.066406 C 286.699219 209.5625 293.007812 199.335938 304.117188 193.210938 C 314.261719 187.613281 324.710938 187.660156 334.546875 194.226562 C 344.070312 200.570312 348.4375 209.5625 347.15625 221.066406 C 346.980469 222.519531 346.980469 223.972656 346.894531 225.382812 C 344.777344 232.4375 340.367188 237.855469 334.632812 242.308594 Z M 334.632812 242.308594 " fill-opacity="1" fill-rule="nonzero"/><path fill="#0c0205" d="M 459.386719 216.746094 C 464.234375 196.695312 476.054688 187.21875 493.382812 189.464844 C 508.996094 191.492188 524.914062 208.679688 526.324219 226 C 522.003906 222.078125 518.253906 218.640625 514.109375 214.894531 C 509.304688 241.824219 496.074219 250.992188 474.289062 243.453125 C 464.324219 237.328125 459.78125 228.203125 459.386719 216.746094 Z M 459.386719 216.746094 " fill-opacity="1" fill-rule="nonzero"/><path fill="#361b0e" d="M 519.710938 175.582031 C 510.054688 168.265625 501.851562 162.183594 491.578125 160.289062 C 490.386719 160.070312 489.019531 159.496094 489.679688 157.953125 C 490.429688 156.234375 492.238281 155.925781 493.957031 155.664062 C 503.96875 153.988281 516.226562 162.492188 519.710938 175.582031 Z M 519.710938 175.582031 " fill-opacity="1" fill-rule="nonzero"/><path fill="#33170f" d="M 287.582031 174.703125 C 288.597656 163.683594 302.132812 154.339844 313.070312 155.839844 C 314.527344 156.058594 316.113281 156.234375 316.421875 157.953125 C 316.597656 159.011719 315.582031 159.628906 314.570312 159.847656 C 304.691406 162.140625 296.578125 167.914062 287.582031 174.703125 Z M 287.582031 174.703125 " fill-opacity="1" fill-rule="nonzero"/><path fill="#f7f3e9" d="M 401 485.851562 C 406.070312 486.335938 411.144531 486.90625 416.171875 487.304688 C 420.667969 487.703125 420.226562 489.859375 418.066406 492.503906 C 415.332031 495.855469 412.6875 499.46875 409.46875 502.332031 C 406.996094 504.535156 405.585938 510.046875 400.296875 506.476562 C 394.695312 502.6875 388.917969 492.503906 390.636719 488.804688 C 392.929688 483.910156 397.515625 486.730469 401 485.851562 Z M 401 485.851562 " fill-opacity="1" fill-rule="nonzero"/><path fill="#fcacae" d="M 400.515625 345.878906 C 401.089844 355.089844 400.425781 363.066406 401.96875 370.867188 C 402.324219 372.71875 402.101562 375.582031 404.394531 375.625 C 407.613281 375.671875 406.511719 372.363281 406.644531 370.558594 C 407.351562 362.84375 407.703125 355.089844 408.234375 347.242188 C 411.144531 346.980469 411.804688 349.535156 413.214844 350.945312 C 417.316406 355.089844 421.242188 359.40625 426.09375 362.757812 C 435.96875 369.542969 435.925781 369.542969 429.003906 379.503906 C 421.902344 389.683594 412.421875 395.457031 399.855469 393.785156 C 387.199219 392.109375 380.097656 383.339844 374.984375 372.453125 C 373.925781 370.207031 373.570312 368.355469 376.171875 366.898438 C 385.347656 361.832031 392.84375 354.691406 400.515625 345.878906 Z M 400.515625 345.878906 " fill-opacity="1" fill-rule="nonzero"/><path fill="#f1f0f0" d="M 439.71875 273.777344 C 416.214844 271.75 393.414062 271.21875 370.308594 274.390625 C 382.964844 259.804688 425.386719 259.230469 439.71875 273.777344 Z M 439.71875 273.777344 " fill-opacity="1" fill-rule="nonzero"/><path fill="#dad8d8" d="M 331.945312 208.242188 C 331.679688 211.546875 329.5625 212.867188 326.609375 212.957031 C 323.699219 213.042969 322.15625 211.28125 321.890625 208.550781 C 321.625 205.816406 322.640625 203.613281 325.683594 203.480469 C 328.902344 203.347656 331.238281 204.890625 331.945312 208.242188 Z M 331.945312 208.242188 " fill-opacity="1" fill-rule="nonzero"/><path fill="#f2f1f2" d="M 503.484375 212.515625 C 502.6875 217.453125 500.085938 220.933594 494.972656 220.757812 C 489.902344 220.582031 487.078125 216.964844 487.078125 212.03125 C 487.078125 207.492188 490.164062 204.847656 494.574219 204.804688 C 499.515625 204.804688 502.777344 207.316406 503.484375 212.515625 Z M 503.484375 212.515625 " fill-opacity="1" fill-rule="nonzero"/></svg>